<svg width="88" height="72" viewBox="0 0 88 72" fill="none" xmlns="http://www.w3.org/2000/svg">
<path d="M18.2773 0C13.2553 0 9.54103 4.51416 9.70703 9.41016C9.86703 14.1122 9.65806 20.2059 8.16406 25.1719C6.66806 30.1539 4.136 33.303 0 33.707V38.293C4.136 38.697 6.66806 41.8461 8.16406 46.8281C9.65806 51.7941 9.86503 57.8878 9.70703 62.5898C9.54103 67.4858 13.2553 72 18.2773 72H69.7305C74.7525 72 78.4668 67.4858 78.3008 62.5898C78.1408 57.8878 78.3478 51.7941 79.8398 46.8281C81.3378 41.8461 83.864 38.697 88 38.293V33.707C83.864 33.303 81.3378 30.1539 79.8398 25.1719C78.3458 20.2059 78.1408 14.1122 78.3008 9.41016C78.4648 4.51416 74.7486 0 69.7266 0H18.2773ZM18.2773 4H69.7266C71.1926 4 72.2107 4.73166 72.8047 5.34766C73.8047 6.38166 74.3508 7.81344 74.3008 9.27344C74.1428 13.9334 74.3098 20.6723 76.0078 26.3203C77.5678 31.5123 80.0224 34.42 82.5664 36C80.0244 37.58 77.5698 40.4897 76.0078 45.6797C74.3098 51.3277 74.1428 58.0666 74.3008 62.7266C74.3508 64.1866 73.8047 65.6163 72.8047 66.6523C72.2107 67.2683 71.1926 68 69.7266 68H18.2773C16.8113 68 15.7971 67.2683 15.2031 66.6523C14.2031 65.6183 13.657 64.1866 13.707 62.7266C13.865 58.0666 13.6941 51.3277 11.9961 45.6797C10.4361 40.4897 7.9815 37.58 5.4375 36C7.9815 34.42 10.4361 31.5103 11.9961 26.3203C13.6941 20.6723 13.865 13.9334 13.707 9.27344C13.657 7.81344 14.2031 6.38166 15.2031 5.34766C15.7971 4.73166 16.8113 4 18.2773 4ZM29.7344 17.2656V54.7305H45.1523C49.1583 54.7305 52.4855 53.7543 54.7695 51.9023C57.0575 50.0483 58.2656 47.3516 58.2656 44.1016C58.2656 39.1936 54.7761 35.5043 49.5781 34.9023V34.8438C53.4001 34.1837 56.3828 30.6023 56.3828 26.6562C56.3828 23.8663 55.3112 21.5042 53.2812 19.8242C51.2592 18.1502 48.4183 17.2656 45.0703 17.2656H29.7344ZM35.8398 22.168H43.6445C47.9265 22.168 50.2852 24.045 50.2852 27.457C50.2832 31.119 47.4824 33.1367 42.3984 33.1367H35.8398V22.168ZM35.8398 37.7266H43.5898C49.1898 37.7266 52.0312 39.7522 52.0312 43.7422C52.0312 47.7282 49.2296 49.8359 43.9336 49.8359H35.8398V37.7266Z" fill="black"/>
</svg>
