<svg width="54" height="54" fill="none" stroke="currentColor" stroke-linecap="round" stroke-linejoin="round" stroke-width="1" viewBox="0 0 24 24" xmlns="http://www.w3.org/2000/svg">
<path fill="currentColor" d="M17 12.5a.5.5 0 1 0 0-1 .5.5 0 0 0 0 1Z"></path>
<path fill="currentColor" d="M12 12.5a.5.5 0 1 0 0-1 .5.5 0 0 0 0 1Z"></path>
<path fill="currentColor" d="M7 12.5a.5.5 0 1 0 0-1 .5.5 0 0 0 0 1Z"></path>
<path d="M12 22c5.523 0 10-4.477 10-10S17.523 2 12 2 2 6.477 2 12c0 1.821.487 3.53 1.338 5L2.5 21.5l4.5-.838A9.955 9.955 0 0 0 12 22Z"></path>
</svg>