<svg width="92" height="92" viewBox="0 0 92 92" fill="none" xmlns="http://www.w3.org/2000/svg">
<path d="M89.5859 40.1797L51.8203 2.41406C50.2188 0.804688 48.1094 0 46 0C43.8906 0 41.7812 0.804688 40.1797 2.41406L32.7109 9.88281L41.9531 19.125C45.0234 17.3203 49.0234 17.7109 51.6562 20.3438C54.2891 22.9766 54.6719 26.9766 52.8672 30.0391L61.9531 39.125C65.0234 37.3203 69.0234 37.7109 71.6562 40.3438C74.7812 43.4688 74.7812 48.5312 71.6562 51.6562C68.5312 54.7812 63.4688 54.7812 60.3438 51.6562C57.7109 49.0234 57.3203 45.0234 59.125 41.9531L50.0391 32.8672C49.3906 33.25 48.7109 33.5312 48 33.7109V58.2812C51.4453 59.1719 54 62.2734 54 66C54 70.4219 50.4219 74 46 74C41.5781 74 38 70.4219 38 66C38 62.2734 40.5547 59.1719 44 58.2812V33.7109C42.6641 33.3672 41.3906 32.7031 40.3438 31.6562C37.7109 29.0234 37.3281 25.0234 39.1328 21.9609L29.8828 12.7109L2.41406 40.1797C-0.804688 43.3906 -0.804688 48.6094 2.41406 51.8203L40.1797 89.5859C41.7812 91.1953 43.8906 92 46 92C48.1094 92 50.2188 91.1953 51.8203 89.5859L89.5859 51.8203C92.8047 48.6094 92.8047 43.3906 89.5859 40.1797Z" fill="black"/>
</svg>
