<svg width="118" height="118" viewBox="0 0 118 118" fill="none" xmlns="http://www.w3.org/2000/svg">
<path fill-rule="evenodd" clip-rule="evenodd" d="M85.5394 58.5C85.5394 67.5501 84.4584 76.0599 82.5608 83.5742C67.2724 77.023 49.8161 77.1186 34.591 83.8611C32.6482 76.2768 31.5394 67.6655 31.5394 58.5C31.5394 49.3939 32.6339 40.8348 34.5533 33.2865C49.8288 39.7322 67.2315 39.5671 82.398 32.791C84.3964 40.4594 85.5394 49.1941 85.5394 58.5ZM85.1531 31.4743C87.1369 38.8873 88.33 47.2327 88.5143 56.0849L114.003 56.9638C113.508 43.2535 108.041 30.8111 99.3499 21.3864C95.0258 25.5206 90.2355 28.8832 85.1531 31.4743ZM97.2576 19.2362C93.3024 23.0141 88.9373 26.1128 84.3096 28.5326C81.0929 18.0367 76.2377 9.67058 70.4328 4.77732C80.7357 7.0268 89.9689 12.138 97.2576 19.2362ZM81.5796 29.868C66.9547 36.5408 50.0881 36.7065 35.3519 30.3649C36.6338 25.9898 38.2013 22.0023 39.9957 18.5032C44.187 10.3301 49.312 5.32744 54.5536 3.64092C55.8701 3.54751 57.1992 3.5 58.5394 3.5C59.8797 3.5 61.2088 3.54751 62.5252 3.64092C67.7669 5.32744 72.8918 10.3301 77.0832 18.5032C78.8094 21.8693 80.3256 25.6875 81.5796 29.868ZM32.5999 29.0921C35.8143 18.3341 40.7384 9.75722 46.6461 4.77732C36.0496 7.09089 26.5847 12.4316 19.203 19.8477C23.2997 23.6417 27.8181 26.7231 32.5999 29.0921ZM17.1444 22.0302C8.77525 31.3947 3.53665 43.6164 3.07301 57.0511L28.5408 57.9293C28.5865 48.6145 29.7485 39.8203 31.7787 32.0312C26.5478 29.5015 21.608 26.1679 17.1444 22.0302ZM35.3969 86.7881C50.0854 80.1433 67.0132 80.0474 81.7663 86.5002C80.4772 90.9283 78.896 94.9618 77.0832 98.4968C71.8319 108.737 65.1151 114 58.5394 114C51.9638 114 45.247 108.737 39.9957 98.4968C38.2222 95.0386 36.6704 91.1032 35.3969 86.7881ZM28.5649 60.9319C28.7474 69.6362 29.9053 77.8501 31.8311 85.169C26.4994 87.8651 21.4863 91.4082 16.9917 95.7982C8.52652 86.2475 3.30399 73.7571 3.0492 60.0521L28.5649 60.9319ZM32.662 88.1149C27.774 90.6508 23.1762 93.9424 19.0417 97.9895C26.8505 105.899 37.0179 111.475 48.403 113.576C41.7548 108.923 36.1934 99.823 32.662 88.1149ZM98.3933 97.6254C94.1769 93.5718 89.4905 90.2936 84.5139 87.7908C80.9878 99.6551 75.3852 108.88 68.6758 113.576C80.2349 111.443 90.5387 105.728 98.3933 97.6254ZM85.332 84.8466C90.7487 87.5036 95.8481 91.0266 100.423 95.4155C108.708 85.8949 113.8 73.5228 114.031 59.9666L88.5379 59.0875C88.4912 68.3474 87.3412 77.0924 85.332 84.8466ZM53.9629 0.676373C23.7933 3.01093 0.0394287 28.2315 0.0394287 59C0.0394287 91.3087 26.2308 117.5 58.5394 117.5C90.8481 117.5 117.039 91.3087 117.039 59C117.039 28.2315 93.2856 3.01093 63.1159 0.676373C61.6238 0.231 60.0954 0 58.5394 0C56.9834 0 55.4551 0.231 53.9629 0.676373Z" fill="black"/>
</svg>