<svg width="776" height="92" viewBox="0 0 776 92" fill="none" xmlns="http://www.w3.org/2000/svg">
<path fill-rule="evenodd" clip-rule="evenodd" d="M38.696 0.399994H0.679993V90H26.024V64.272H38.696C59.816 64.272 73.256 50.96 73.256 32.4C73.256 13.712 59.816 0.399994 38.696 0.399994ZM36.264 42.896H25.128V21.776H36.264C43.048 21.776 47.528 26.128 47.528 32.4C47.528 38.544 43.048 42.896 36.264 42.896ZM133.835 90H161.995L142.027 56.336C152.395 51.088 158.539 42 158.539 30.992C158.539 13.456 145.227 0.399994 125.515 0.399994H84.555V90H109.899V61.456H117.451L133.835 90ZM109.003 21.264H122.059C128.459 21.264 132.683 25.488 132.683 31.248C132.683 37.136 128.459 41.232 122.059 41.232H109.003V21.264ZM171.305 90H196.649V0.399994H171.305V90ZM260.948 0.399994L245.844 33.168L230.612 0.399994H202.964L232.66 59.024V90H258.004V59.024L287.7 0.399994H260.948ZM343.72 90H370.6L337.832 0.399994H312.36L279.592 90H305.576L310.568 73.488H338.728L343.72 90ZM324.648 25.36L333.352 52.752H315.944L324.648 25.36ZM369.506 61.712C369.506 78.736 382.434 91.792 403.426 91.792C424.29 91.792 437.346 78.608 437.346 59.664V0.399994H412.002V59.92C412.002 65.168 408.674 68.624 403.426 68.624C397.538 68.624 394.85 64.656 394.21 59.792L369.506 61.712ZM477.399 68.24V54.672H512.855V34.32H477.399V22.16H517.719V0.399994H452.055V90H518.999V68.24H477.399ZM556.774 68.24V54.672H592.23V34.32H556.774V22.16H597.094V0.399994H531.43V90H598.374V68.24H556.774ZM628.627 90H653.971V24.464H679.059V0.399994H603.539V24.464H628.627V90ZM736.563 31.7551L738.253 1L719.079 1.98633L726.571 33.989L704.082 9.04177L691.197 23.1386L718.194 39.8933L686 36.4924V55.5076L718.601 49.7676L692.278 70.616L705.793 84.123L728.657 51.9993L723.747 91L742.921 90.0137L737.603 56.9883L757.918 82.9582L770.803 68.8614L744.632 49.9848L776 55.5076V36.4924L742.485 40.0329L769.722 21.384L756.207 7.87705L736.563 31.7551Z" fill="#F8F8F8"/>
</svg>
