<svg width="84" height="84" viewBox="0 0 84 84" fill="none" xmlns="http://www.w3.org/2000/svg">
<path d="M42 0.333313C19.025 0.333313 0.333313 19.025 0.333313 42C0.333313 64.975 19.025 83.6666 42 83.6666C64.975 83.6666 83.6666 64.975 83.6666 42C83.6666 19.025 64.975 0.333313 42 0.333313ZM42 6.58331C61.5291 6.58331 77.4166 22.4708 77.4166 42C77.4166 54.1916 71.2243 64.9585 61.8201 71.3335L33.1295 28.792C32.365 27.6524 30.9324 27.1551 29.6261 27.5509C28.3136 27.9551 27.4166 29.1687 27.4166 30.5416V57.625C27.4166 59.35 28.8166 60.75 30.5416 60.75C32.2666 60.75 33.6666 59.35 33.6666 57.625V40.763L56.327 74.3608C51.9395 76.3087 47.1 77.4166 42 77.4166C22.4708 77.4166 6.58331 61.5291 6.58331 42C6.58331 22.4708 22.4708 6.58331 42 6.58331ZM53.4583 23.25C51.7333 23.25 50.3333 24.65 50.3333 26.375V44.0548L56.5833 53.0189V26.375C56.5833 24.65 55.1833 23.25 53.4583 23.25Z" fill="black"/>
</svg>
