<svg width="43" height="41" viewBox="0 0 43 41" fill="none" xmlns="http://www.w3.org/2000/svg">
<path d="M3.15399 25.2155L3.302 25.1828L3.3414 25.0364L3.93765 22.8218L4.76555 25.0582L4.81249 25.185L4.94429 25.2151L7.14036 25.7171L4.911 26.5664L4.80163 26.608L4.76358 26.7187L3.93788 29.1208L3.34254 26.7394L3.31048 26.6111L3.18648 26.5654L0.885786 25.7173L3.15399 25.2155Z" stroke="black" stroke-width="0.5"/>
<path d="M38.154 25.2155L38.302 25.1828L38.3414 25.0364L38.9376 22.8218L39.7655 25.0582L39.8125 25.185L39.9443 25.2151L42.1404 25.7171L39.911 26.5664L39.8016 26.608L39.7636 26.7187L38.9379 29.1208L38.3425 26.7394L38.3105 26.6111L38.1865 26.5654L35.8858 25.7173L38.154 25.2155Z" stroke="black" stroke-width="0.5"/>
<path fill-rule="evenodd" clip-rule="evenodd" d="M24.2213 13.1225C25.447 12.5131 26.4702 11.5136 27.1435 10.2591C27.8896 8.86879 28.1599 7.25122 27.9084 5.68197C27.6569 4.11272 26.8991 2.68889 25.7641 1.65307C24.6291 0.617257 23.1871 0.0335474 21.6839 0.00140221C20.1807 -0.030743 18.7092 0.490665 17.5203 1.47678C16.3313 2.4629 15.4983 3.85272 15.1633 5.40942C14.8283 6.96613 15.012 8.59341 15.6831 10.014C16.2606 11.2364 17.1682 12.2407 18.2848 12.9046V16.5755V17.0755H18.7848H23.7213H24.2213V16.5755V13.1225ZM19.0928 12.6082L19.1015 12.5875C17.8623 12.01 16.8538 10.9933 16.2478 9.71066C15.6419 8.42799 15.476 6.95869 15.7785 5.55311C16.081 4.14753 16.8331 2.89264 17.9066 2.00226C18.9802 1.11187 20.3088 0.641084 21.6661 0.670109C23.0233 0.699134 24.3253 1.22618 25.3501 2.16143C26.3749 3.09669 27.0592 4.3823 27.2863 5.7992C27.5134 7.2161 27.2693 8.67664 26.5956 9.93194C25.953 11.1294 24.9574 12.0694 23.7658 12.6082H23.2213V16.0755H19.2848V12.6082H19.0928Z" fill="black"/>
<line x1="19" y1="19.5" x2="24" y2="19.5" stroke="#010101"/>
<line x1="26" y1="23.5" x2="35" y2="23.5" stroke="#010101"/>
<line x1="8" y1="23.5" x2="17" y2="23.5" stroke="#010101"/>
<line x1="24.6527" y1="21.8923" x2="31.1267" y2="15.6403" stroke="#010101"/>
<line x1="11.3473" y1="15.6403" x2="17.8214" y2="21.8923" stroke="#010101"/>
<path d="M17.3 8.58333H25.3M21.3 8V15" stroke="#010101"/>
<path d="M23.875 13L34 35H27.25H23.5V40.5H19.5V35H9.5L18.4231 13" stroke="black"/>
<rect x="19.5" y="23.5" width="4" height="17" stroke="black"/>
</svg>
