<svg width="94" height="85" viewBox="0 0 94 85" fill="none" xmlns="http://www.w3.org/2000/svg">
<path fill-rule="evenodd" clip-rule="evenodd" d="M66.1094 0.968735C64.55 0.916301 62.9178 1.18817 61.2812 1.71873C58.0082 2.77987 54.5784 4.84775 51.0586 7.71092C49.6792 8.833 48.2872 10.1156 46.8906 11.4765C45.5248 10.1502 44.1615 8.90198 42.8125 7.80467C39.2955 4.9438 35.875 2.87512 32.6094 1.81639C29.3438 0.757662 26.0944 0.724856 23.4258 2.26561C20.7571 3.80636 19.1612 6.6347 18.4453 9.99217C17.7294 13.3496 17.8082 17.348 18.5273 21.8242C18.7771 23.379 19.1333 25.0101 19.5391 26.6719C18.0142 27.134 16.5334 27.6199 15.1602 28.1562C11.016 29.7749 7.58689 31.7113 5.08984 34.0156C2.59279 36.3199 0.980469 39.1166 0.980469 42.1875C0.980469 45.2584 2.59279 48.0512 5.08984 50.3555C7.58689 52.6598 11.016 54.6001 15.1602 56.2187C16.6285 56.7922 18.2182 57.3086 19.8594 57.7969C19.2691 60.0025 18.7908 62.1429 18.4648 64.1719C17.7452 68.6517 17.6692 72.6505 18.3867 76.0156C19.1043 79.3807 20.701 82.2251 23.3828 83.7734C26.0647 85.3218 29.3285 85.2838 32.6016 84.2226C35.8746 83.1615 39.3005 81.0975 42.8203 78.2344C44.187 77.1226 45.5695 75.8544 46.9531 74.5078C48.344 75.8625 49.732 77.1367 51.1055 78.2539C54.6225 81.1148 58.0469 83.1795 61.3125 84.2383C64.5781 85.297 67.8274 85.3298 70.4961 83.789C73.1648 82.2483 74.7567 79.42 75.4727 76.0625C76.1886 72.705 76.1097 68.7106 75.3906 64.2344C75.0638 62.1999 74.5852 60.0524 73.9922 57.8398C75.6875 57.3397 77.3275 56.8094 78.8398 56.2187C82.984 54.6001 86.4131 52.6598 88.9102 50.3555C91.4072 48.0512 93.0195 45.2584 93.0195 42.1875C93.0195 39.1166 91.4072 36.3199 88.9102 34.0156C86.4131 31.7113 82.984 29.7749 78.8398 28.1562C77.4469 27.6122 75.9434 27.12 74.3945 26.6523C74.8035 24.9804 75.1667 23.3376 75.418 21.7734C76.1376 17.2936 76.2136 13.2909 75.4961 9.92577C74.7786 6.56067 73.178 3.72023 70.4961 2.17186C69.1552 1.39767 67.6687 1.02117 66.1094 0.968735ZM65.9258 5.03905C66.9043 5.0658 67.7391 5.29866 68.4531 5.71092C69.8812 6.53544 70.9368 8.14017 71.5 10.7812C72.0632 13.4223 72.0437 16.9906 71.3789 21.1289C71.1513 22.5457 70.8208 24.0474 70.4453 25.5859C66.3543 24.6014 61.8715 23.8708 57.0938 23.4414C54.6953 20.1186 52.2308 17.0915 49.7461 14.4062C51.0604 13.1233 52.3661 11.9234 53.6406 10.8867C56.8921 8.24185 59.9703 6.44218 62.5391 5.60936C63.8235 5.19295 64.9473 5.01229 65.9258 5.03905ZM27.9727 5.05077C28.9568 5.02329 30.083 5.20347 31.3711 5.62108C33.9473 6.4563 37.0309 8.25518 40.2852 10.9023C41.5341 11.9183 42.8106 13.0953 44.0977 14.3476C41.5946 17.0549 39.1097 20.1083 36.6953 23.4609C31.9378 23.8981 27.4732 24.6327 23.4023 25.6211C23.0297 24.0911 22.6991 22.5972 22.4727 21.1875C21.8073 17.0456 21.7907 13.4768 22.3555 10.8281C22.9203 8.17943 23.9845 6.56259 25.4258 5.73045C26.1464 5.31439 26.9885 5.07824 27.9727 5.05077ZM46.9531 17.2851C48.5823 19.0581 50.2119 20.9983 51.8281 23.0859C50.2401 23.0197 48.6326 22.9805 47 22.9805C45.3349 22.9805 43.6968 23.021 42.0781 23.0898C43.6947 21.0006 45.3235 19.0595 46.9531 17.2851ZM47 27.0195C49.7198 27.0195 52.3707 27.1313 54.9492 27.3203C56.7235 29.8686 58.4573 32.5721 60.1094 35.4336C61.561 37.9479 62.8747 40.4583 64.0703 42.9375C62.862 45.4495 61.5264 47.9939 60.0547 50.543C58.7592 52.7868 57.4064 54.9179 56.0312 56.9726C53.1186 57.2161 50.1006 57.3515 47 57.3515C43.8247 57.3515 40.7389 57.208 37.7617 56.9531C36.4095 54.9279 35.0795 52.8291 33.8047 50.6211C32.3364 48.0779 31.0072 45.5381 29.8008 43.0312C31.0122 40.5102 32.3474 37.9563 33.8242 35.3984C35.4676 32.5519 37.1964 29.8641 38.9609 27.3281C41.5672 27.1348 44.2489 27.0195 47 27.0195ZM60.0977 27.8203C63.3946 28.2317 66.4902 28.8028 69.3711 29.4883C68.5163 32.2906 67.4633 35.2176 66.1875 38.2383C65.3591 36.6414 64.5012 35.0392 63.5742 33.4336C62.4508 31.4878 61.2808 29.6328 60.0977 27.8203ZM33.6875 27.8515C32.5293 29.6302 31.3897 31.4491 30.2891 33.3555C29.3502 34.9816 28.4744 36.6055 27.6367 38.2226C26.3719 35.2201 25.3253 32.3097 24.4766 29.5234C27.336 28.8367 30.4135 28.2676 33.6875 27.8515ZM73.3281 30.5508C74.7459 30.9797 76.1151 31.4274 77.3711 31.918C81.1914 33.4101 84.2133 35.177 86.1719 36.9844C88.1304 38.7917 88.9805 40.5154 88.9805 42.1875C88.9805 43.8596 88.1304 45.5832 86.1719 47.3906C84.2133 49.198 81.1914 50.9649 77.3711 52.457C75.9754 53.0021 74.4419 53.4965 72.8477 53.9648C71.7104 50.4473 70.2588 46.7775 68.5312 43.0312C70.5176 38.7302 72.1222 34.5366 73.3281 30.5508ZM20.6055 30.5703C21.7976 34.5163 23.3816 38.6682 25.3398 42.9258C23.6009 46.6939 22.1422 50.3845 21 53.9219C19.4619 53.4658 17.9804 52.9849 16.6289 52.457C12.8086 50.9649 9.7867 49.198 7.82812 47.3906C5.86955 45.5832 5.01953 43.8596 5.01953 42.1875C5.01953 40.5154 5.86955 38.7917 7.82812 36.9844C9.7867 35.177 12.8086 33.4101 16.6289 31.918C17.8655 31.435 19.2118 30.9937 20.6055 30.5703ZM47 33C41.5008 33 37 37.5008 37 43C37 48.4991 41.5008 53 47 53C52.4992 53 57 48.4991 57 43C57 37.5008 52.4992 33 47 33ZM27.6836 47.7305C28.525 49.3557 29.4001 50.9866 30.3438 52.6211C31.0821 53.8999 31.8361 55.1448 32.6016 56.3672C29.9156 55.9947 27.3625 55.5232 24.9648 54.9648C25.7273 52.6296 26.6395 50.2056 27.6836 47.7305ZM66.2383 47.7305C67.2866 50.2114 68.1992 52.6393 68.9648 54.9805C66.5596 55.5382 63.9986 56.0081 61.3047 56.3789C62.0801 55.1415 62.846 53.8811 63.5938 52.5859C64.5305 50.9634 65.4022 49.3438 66.2383 47.7305ZM23.8125 58.8476C27.4321 59.7051 31.3554 60.3638 35.5156 60.793C38.2928 64.8097 41.1859 68.419 44.0977 71.5742C42.7956 72.8437 41.5051 74.0352 40.2422 75.0625C36.9908 77.7073 33.9087 79.5031 31.3398 80.3359C28.771 81.1687 26.8539 81.0589 25.4258 80.2344C23.9977 79.4098 22.946 77.8051 22.3828 75.164C21.8197 72.523 21.8352 68.9585 22.5 64.8203C22.8016 62.943 23.2523 60.9327 23.8125 58.8476ZM70.1211 58.8633C70.686 60.9611 71.138 62.9787 71.4414 64.8672C72.1068 69.009 72.1234 72.5779 71.5586 75.2265C70.9938 77.8752 69.9374 79.496 68.4961 80.3281C67.0548 81.1602 65.1192 81.2688 62.543 80.4336C59.9667 79.5984 56.8832 77.7995 53.6289 75.1523C52.3569 74.1176 51.0575 72.9165 49.7461 71.6367C52.6773 68.4692 55.5909 64.8415 58.3867 60.8008C62.5574 60.3745 66.4916 59.7197 70.1211 58.8633ZM40.7344 61.2031C42.7879 61.315 44.8685 61.3906 47 61.3906C49.061 61.3906 51.0741 61.3196 53.0625 61.2148C51.0299 63.9572 48.9581 66.4503 46.8945 68.6953C44.8322 66.4455 42.7643 63.9479 40.7344 61.2031Z" fill="black"/>
</svg>
