<svg width="97" height="68" viewBox="0 0 97 68" fill="none" xmlns="http://www.w3.org/2000/svg">
<path d="M0 0H28.512C33.5775 0 38.054 1.02104 41.8001 2.86847C49.7682 6.79798 54.432 14.4662 54.432 24C54.432 34.2463 48.9704 42.36 39.7702 45.929C36.4716 47.2086 32.6924 47.904 28.512 47.904H21.2422H19.008V67.2H0V0ZM18.336 31.872H21.2422H26.688C34.24 31.872 41.8001 28.608 41.8001 24C41.8001 19.296 36.74 16.032 26.688 16.032H21.2422H18.336V31.872Z" fill="#F8F8F8"/>
<path fill-rule="evenodd" clip-rule="evenodd" d="M77.6902 0L59.1622 42.336C56.5 26.5 59.1622 11.7 41.8001 2.86847C38.054 1.02104 33.5775 0 28.512 0H21.2422V16.032H26.688C36.74 16.032 41.8001 19.296 41.8001 24C41.8001 28.608 34.24 31.872 26.688 31.872H21.2422V47.904H28.512C32.6924 47.904 36.4716 47.2086 39.7702 45.929V33.888L54.7462 67.2H62.8102L77.8822 33.696V67.2H96.4102V0H77.6902Z" fill="#F8F8F8"/>
</svg>
