<svg width="40" height="35" viewBox="0 0 40 35" fill="none" xmlns="http://www.w3.org/2000/svg">
<path fill-rule="evenodd" clip-rule="evenodd" d="M15.88 14.9636L17.0585 14.7355L17.4116 13.5882L19.7971 5.83517L23.1581 13.7793L23.5703 14.7537L24.6078 14.9612L32.2229 16.4842L24.3675 19.1026L23.4804 19.3983L23.1385 20.2687L19.7995 28.768L17.423 20.4506L17.1298 19.4243L16.114 19.0966L8.01854 16.4851L15.88 14.9636ZM15.5 13L18.5856 2.9717L19.5 0L20.7115 2.86347L25 13L36.0472 15.2094L40 16L36.1757 17.2748L25 21L20.7042 31.9347L19.5 35L18.5952 31.8333L15.5 21L3.94691 17.2732L0 16L4.07163 15.2119L15.5 13ZM7 5.99997V2H9V5.99997H13V7.99997H9V12H7V7.99997H3V5.99997H7ZM8 26V22H10V26H14V28H10V32H8V28H4V26H8Z" fill="black"/>
</svg>
