<svg width="84" height="56" viewBox="0 0 84 56" fill="none" xmlns="http://www.w3.org/2000/svg">
<path d="M40.6308 -0.00390625C33.1188 -0.00390625 28.884 5.12881 21.873 13.6328C21.871 13.6348 21.8701 13.6376 21.8691 13.6406C21.5171 14.0666 21.5798 14.6959 22.0058 15.0469C22.4318 15.3979 23.0591 15.3372 23.4121 14.9102L23.4141 14.9082C24.5271 13.5602 26.9805 12.724 29.9785 12.668C34.6425 12.552 41.3456 14.3941 46.1016 19.7441C51.2176 25.4991 58.6295 32.3594 64.8945 32.3594C73.1775 32.3594 80.1189 25.7055 83.4609 14.5605C83.6129 14.0505 83.3379 13.511 82.8359 13.332C82.3339 13.156 81.7792 13.4025 81.5762 13.8945C80.5382 16.4125 78.8132 18.0246 76.4492 18.6816C72.6642 19.7376 68.1157 18.1005 66.0937 16.6055C63.3827 14.5995 61.1798 12.2343 59.0508 9.94727C54.2878 4.82927 49.7888 -0.00390625 40.6308 -0.00390625ZM40.6308 1.99609C48.9188 1.99609 52.9369 6.31059 57.5879 11.3086C59.7789 13.6616 62.0423 16.0979 64.9023 18.2129C67.0883 19.8309 72.3003 21.9114 76.9863 20.6074C77.8383 20.3704 78.6295 20.0298 79.3555 19.5918C75.9535 26.4278 70.7855 30.3594 64.8945 30.3594C60.5855 30.3594 54.4417 26.118 47.5957 18.416C42.5057 12.69 35.393 10.6641 30.293 10.6641C30.175 10.6641 30.0574 10.665 29.9414 10.668C28.7544 10.69 27.6409 10.8208 26.6269 11.0508C31.6209 5.17778 35.1588 1.99609 40.6308 1.99609ZM42 3.5C41.724 3.5 41.5 3.724 41.5 4C41.5 4.276 41.724 4.5 42 4.5C47.973 4.5 52.075 9.02822 56.418 13.8242C58.357 15.9632 60.362 18.1774 62.543 19.9414C64.568 21.5804 68.8018 24.0664 72.9238 24.0664C73.4378 24.0664 73.9501 24.0274 74.4551 23.9434C74.7281 23.8984 74.9122 23.6411 74.8672 23.3691C74.8222 23.0981 74.565 22.904 74.293 22.957C70.074 23.65 65.3179 20.9011 63.1699 19.1641C61.0499 17.4491 59.0712 15.2643 57.1582 13.1523C52.8602 8.40634 48.416 3.5 42 3.5ZM38.7793 3.77539C36.5913 4.20139 34.9626 5.09098 32.7226 6.58398C32.4926 6.73698 32.429 7.04834 32.582 7.27734C32.679 7.42234 32.838 7.5 33 7.5C33.096 7.5 33.1914 7.47302 33.2754 7.41602C35.4074 5.99502 36.9467 5.15081 38.9687 4.75781C39.2397 4.70481 39.4182 4.44287 39.3652 4.17188C39.3132 3.90088 39.0533 3.72939 38.7793 3.77539ZM19.4863 23.6406C11.9743 23.6406 7.74146 28.7733 0.730458 37.2773C0.729458 37.2793 0.727552 37.2812 0.726552 37.2832C0.374552 37.7092 0.435317 38.3375 0.861317 38.6895C1.28832 39.0405 1.91852 38.9827 2.26952 38.5547V38.5527C3.41452 37.1667 5.95163 36.3172 9.05663 36.2812C13.6946 36.2202 20.3502 38.0619 24.9492 43.3789C31.9912 51.5209 38.6709 56.0039 43.7539 56.0039C52.0379 56.0039 58.9764 49.3511 62.3164 38.2031C62.4684 37.6931 62.1953 37.1536 61.6933 36.9746C61.1923 36.7966 60.6366 37.0422 60.4336 37.5352C59.3366 40.1952 57.508 41.8688 54.998 42.5098C51.419 43.4268 47.1654 42.0394 44.9824 40.2734C42.5664 38.3194 40.5343 36.1269 38.5703 34.0039C33.6373 28.6749 28.9793 23.6406 19.4863 23.6406ZM19.4902 25.6406C28.1082 25.6406 32.2775 30.1443 37.1055 35.3613C39.1185 37.5363 41.2005 39.7861 43.7285 41.8301C46.3535 43.9541 51.2371 45.5363 55.4961 44.4473C56.4621 44.2013 57.356 43.8251 58.168 43.3281C54.765 50.1081 49.6179 54.0039 43.7539 54.0039C39.2609 54.0039 33.1208 49.7653 26.4648 42.0703C21.4908 36.3193 14.3618 34.2793 9.2578 34.2793C9.1838 34.2793 9.10715 34.2802 9.03515 34.2812C7.76415 34.2953 6.57404 34.4307 5.49804 34.6777C10.485 28.8157 14.0232 25.6406 19.4902 25.6406ZM20.5 27C20.224 27 20 27.224 20 27.5C20 27.776 20.224 28 20.5 28C26.473 28 30.575 32.5282 34.918 37.3242C36.857 39.4632 38.862 41.6774 41.043 43.4414C43.068 45.0804 47.3018 47.5664 51.4238 47.5664C51.9378 47.5664 52.4501 47.5274 52.9551 47.4434C53.2281 47.3984 53.4122 47.1411 53.3672 46.8691C53.3222 46.5981 53.067 46.408 52.793 46.457C48.577 47.157 43.8179 44.4011 41.6699 42.6641C39.5499 40.9491 37.5712 38.7643 35.6582 36.6523C31.3602 31.9063 26.916 27 20.5 27ZM18.0586 27.1484C15.4826 27.4934 13.7356 28.408 11.2226 30.084C10.9926 30.237 10.929 30.5483 11.082 30.7773C11.179 30.9223 11.338 31 11.5 31C11.596 31 11.6923 30.973 11.7773 30.916C14.1633 29.326 15.8104 28.4596 18.1914 28.1406C18.4654 28.1036 18.6561 27.8511 18.6191 27.5781C18.5821 27.3041 18.3296 27.1034 18.0586 27.1484Z" fill="black"/>
</svg>
